<?xml version="1.0" standalone="no"?><!DOCTYPE svg PUBLIC "-//W3C//DTD SVG 1.1//EN" "http://www.w3.org/Graphics/SVG/1.1/DTD/svg11.dtd"><svg t="1775391631162" class="icon" viewBox="0 0 1024 1024" version="1.1" xmlns="http://www.w3.org/2000/svg" p-id="2505" xmlns:xlink="http://www.w3.org/1999/xlink" width="200" height="200"><path d="M445.466589 107.831655C414.193288 112.708453 363.987796 128.201374 334.437359 142.258912 294.845823 160.907871 245.213189 197.343347 216.237755 228.899837 178.366937 270.501738 135.906823 338.781207 133.038223 362.879842 131.890384 374.643804 132.750743 376.652024 141.931439 385.832763 153.407943 397.307078 163.449041 398.74244 176.931575 390.709562 183.243736 386.693122 189.843398 376.93738 200.169852 355.421967 243.492471 267.058156 328.700201 196.768323 421.078306 173.244669 527.518238 146.275287 641.988904 169.513607 722.890548 234.351639 744.98311 252.138114 749.572407 258.164919 746.130971 264.762435 741.539442 273.082815 744.410253 284.271774 752.15563 290.008932 762.484229 297.754309 820.147596 313.247209 829.903339 311.238989 837.075858 309.518271 852.568758 295.173232 852.568758 290.296433 852.568758 277.099255 843.100517 204.5137 841.092298 200.497261 834.20728 188.160441 814.122937 185.291905 804.369341 195.907964 801.215406 199.351546 797.484323 205.088703 796.051106 208.532285 793.755385 214.556944 792.895026 214.269442 776.541767 200.211905 737.810591 167.792889 684.734375 138.242494 636.824605 122.176694 583.748432 104.390197 506.00068 98.650916 445.464357 107.831655Z" fill="#1296db" p-id="2506"></path><path d="M362.267078 226.604116C335.297718 232.343419 305.461925 257.302414 291.116885 286.279994L283.084007 302.633253 283.084007 672.725028 290.829384 688.503305C300.870482 708.872853 321.527682 729.530117 341.89738 739.571216 357.675636 747.316657 357.963137 747.316657 436.571141 748.751955L515.466732 750.185171 516.041864 803.261387C516.32928 832.524323 517.474995 860.639398 518.337499 865.803698 520.918576 879.000877 537.271771 895.926993 554.485453 903.67237 590.920908 919.167415 659.77538 924.904573 714.572314 916.871694 766.500669 909.126317 794.042886 895.926993 804.083985 874.124078 808.38578 864.08298 809.533641 855.189742 809.533641 822.481079L809.533641 782.891689 828.182621 765.678071C852.85626 742.439794 875.519533 712.028998 893.308154 677.889264 909.946769 645.470312 910.521772 635.141583 895.603875 621.656968 882.404551 609.895151 866.338794 610.75551 854.001975 623.665273 848.83982 629.114951 843.67552 637.149868 842.813016 641.739164 840.231939 651.494907 820.149742 685.922078 814.125083 691.371798 810.108644 694.527879 809.533641 691.6593 809.533641 664.402395 809.533641 631.983465 807.237919 623.379831 794.615744 612.188727 781.706067 600.139495 752.728487 588.952596 722.890548 583.78615L712.276592 582.065432 711.418293 446.652211C710.555874 288.57357 713.711955 304.639327 673.26006 263.324928 632.233162 222.300175 646.005344 225.168754 499.686374 224.595897 431.121614 224.308395 369.152096 225.45411 362.264932 226.604116ZM614.446687 322.140446L653.177863 360.011264 654.036013 469.317587 654.898581 578.623996 622.479565 582.067578C573.419789 587.231878 534.403257 602.149774 522.639295 620.223751 519.770759 624.527692 518.047938 637.437369 516.902223 658.382156L515.466732 689.94077 445.179151 690.798941 374.891399 691.373944 362.839936 683.916068C356.240273 679.612042 348.207395 671.291747 345.05346 665.267088 339.026656 654.650987 339.026656 652.930269 339.601659 483.948025L340.462018 313.53471 348.207395 303.493612C362.839936 284.269629 363.412793 283.984273 475.302382 283.984273L575.715575 283.984273 614.446687 322.140446ZM722.032335 642.601669C731.49843 644.609953 740.393749 646.90561 741.82703 648.340972 747.851689 654.078129 697.931553 662.686011 658.054619 662.686011 617.890269 662.686011 567.682717 652.357454 584.608791 647.480613 589.773112 646.045251 613.586328 641.168452 628.791726 638.585273 640.841044 636.289508 703.670792 639.160276 722.032335 642.601669ZM749.286965 731.253045L749.286965 750.76232 727.196699 755.639118C681.005394 765.392715 621.044203 764.244855 588.052265 753.055896L574.855216 748.464453 576.288368 732.115486C577.150872 723.220188 578.011231 715.472687 578.296587 715.187224 578.584089 714.899722 590.348051 716.620354 604.405589 719.203663 635.101741 724.367963 703.958358 722.932601 729.204854 716.334998 737.810591 714.039363 745.843426 712.031143 747.278917 711.743642 748.426606 711.45614 749.286965 720.351524 749.286965 731.253045ZM658.915021 821.622866C699.654417 821.910367 720.596973 819.616791 744.410253 813.019275 748.712048 811.581767 749.286965 813.877488 749.286965 830.230747L749.286965 848.879727 738.67095 852.033662C704.243714 861.501903 625.923147 863.224766 594.362302 854.616885 575.715575 849.740086 573.707291 847.159009 576.003012 828.510029L577.72373 812.731773 595.510205 817.033569C607.274167 819.902147 628.216723 821.625011 658.915021 821.625011Z" fill="#1296db" p-id="2507"></path><path d="M377.472476 318.986512C366.856375 323.86331 364.848155 333.619052 364.848155 378.372742 364.848155 417.103919 365.421013 421.693216 370.872814 428.578234L376.609972 436.038298 423.94903 436.038298C487.926789 436.038298 486.491276 437.758973 484.770623 368.619145 483.622762 312.961853 486.203839 315.54293 426.817609 315.830431 403.004329 315.830431 380.626411 317.263648 377.470331 318.984366ZM427.965469 375.791665C427.965469 378.9456 425.957249 381.528822 423.661528 381.528822 421.365807 381.528822 419.357587 378.9456 419.357587 375.791665 419.357587 372.635585 421.365807 370.052362 423.661528 370.052362 425.957249 370.052362 427.965469 372.635585 427.965469 375.791665Z" fill="#1296db" p-id="2508"></path><path d="M512.885698 370.627365C506.573537 379.233101 507.14854 393.863496 513.458555 399.602799 520.918576 406.489963 587.191971 406.775319 596.658066 399.890301 604.118087 394.726001 605.265948 380.09346 598.380994 370.62522 594.36449 364.602706 592.068769 364.315205 555.633357 364.315205 519.197858 364.315205 516.902223 364.602706 512.885698 370.627365Z" fill="#1296db" p-id="2509"></path><path d="M384.930352 458.128671C368.577093 464.153394 364.848155 485.670889 378.332835 496.28699 385.790711 502.024147 387.79893 502.311649 494.524219 501.45129 598.380994 500.588785 602.970162 500.303429 608.422028 494.851628 611.575963 491.697779 615.019544 485.670889 615.879903 481.366948 617.602853 475.056933 616.167341 471.900895 609.282387 464.728333L600.674505 456.120537 494.811721 456.407953C436.858707 456.407953 387.226073 457.268312 384.930352 458.128671Z" fill="#1296db" p-id="2510"></path><path d="M386.365714 529.853867C365.421013 535.016107 362.552434 562.272883 381.774271 572.313981 388.946791 576.042919 405.872907 576.615776 492.228498 576.615776 551.616874 576.615776 596.945482 575.470061 601.249508 573.747198 605.553449 572.313981 611.003019 566.289322 613.586328 560.837521 618.17777 551.36928 618.17777 549.648562 614.159185 542.763629 606.126307 528.130939 603.545315 527.845711 493.951362 528.130939 438.006653 528.418504 389.521794 529.278864 386.365714 529.853867Z" fill="#1296db" p-id="2511"></path><path d="M376.324616 611.043012C372.881034 614.486594 370.585313 620.511253 370.585313 625.963054 370.585313 645.757749 377.757832 648.340972 430.546461 648.340972 456.080544 648.340972 476.450242 646.90561 480.466596 645.184892 493.951362 639.160276 496.532439 622.231971 485.916338 610.182653 482.187443 605.880793 475.589883 605.305855 431.694407 605.305855 385.790711 605.305855 381.488915 605.880793 376.324616 611.043012Z" fill="#1296db" p-id="2512"></path><path d="M819.001881 348.534803C768.79639 364.027703 734.65451 415.381055 738.673095 469.032274 742.402033 519.237722 773.385687 559.68966 817.566519 572.599337 842.813016 580.059358 878.102756 577.190779 899.905671 566.00182 965.318706 532.722445 982.81768 446.366855 936.628628 385.25776 927.73539 373.208442 900.76603 354.846964 883.267056 348.822305 866.913797 343.372649 835.927998 343.085147 819.001881 348.534803ZM897.037092 436.898678C908.513552 460.136891 905.644974 481.366948 888.42921 500.878432L878.675614 512.065246 878.388112 462.14511C878.388112 412.512412 878.388112 412.227056 884.127415 417.389275 887.28135 420.259913 893.020653 428.867881 897.037092 436.898678ZM821.010101 462.432547L821.010101 508.623852 814.985442 503.172008C804.944344 494.27877 798.05718 477.350444 798.05718 462.720113 798.05718 443.210774 809.535786 419.684996 820.435098 416.24356 820.7226 415.956058 821.010101 436.898678 821.010101 462.432547Z" fill="#1296db" p-id="2513"></path><path d="M100.331727 468.169769C81.682747 487.679108 65.044132 507.188447 63.321268 511.492388 58.44447 522.966746 63.321268 536.451383 74.799874 544.19676 87.134505 552.51714 94.594569 552.51714 107.504246 543.911404L117.832846 536.738928 119.553521 553.092143C130.455022 651.496966 167.463378 728.096901 233.163871 790.353856 274.188624 829.082887 322.960898 858.060466 376.324616 876.134443 403.291873 885.027681 454.932727 895.356281 461.532346 893.348061 474.154586 889.331622 479.606323 885.027681 484.19562 875.561586 487.926789 867.241206 488.212123 863.510122 485.630982 854.904386 481.326955 839.98649 472.146302 835.107546 441.448004 830.518249 363.414939 818.756432 287.960805 773.425594 240.621747 710.022924 220.827052 683.628567 195.293054 632.560571 188.407993 605.305855 182.95838 584.075754 175.210879 538.747104 176.646219 537.313952 177.219077 536.738928 182.670878 539.319962 188.407993 543.623988 201.032357 551.944283 203.613434 552.231784 217.098114 546.777837 229.434934 541.615683 237.753168 526.410285 234.02423 515.508827 230.580649 505.753085 173.777598 442.637917 163.736542 437.186115 159.1451 434.890394 150.82472 433.169676 144.800061 433.169676 134.471504 433.169676 131.890384 435.17781 100.331727 468.169769Z" fill="#1296db" p-id="2514"></path></svg>